# xmcd
#
# Track frame offsets:
#  150
#  15025
#  26725
#  40525
#  50463
#  62400
#  73038
#  86913
#  100550
#  114888
#  129350
#  143063
#
# Disc length: 1951 seconds
#
# Revision: 1
# Processed by: cddbd v1.5.1PL2 Copyright (c) Steve Scherf et al.
# Submitted via: Collectorz.com Music Collector 6.9
#
DISCID=8a079d0c
DTITLE=Leadbelly - Leadbelly
DYEAR=1900
DGENRE=
TTITLE0=In New Orleans
TTITLE1=Goodnight Irene
TTITLE2=Where Did You Sleep Last Night
TTITLE3=How Long
TTITLE4=Boll Weevil Blues
TTITLE5=Blue Tail Fly
TTITLE6=The Bourgeois Blues
TTITLE7=Looky Looky Yonder/Black Betty
TTITLE8=Yellow Gal
TTITLE9=Poor Howard/Green Corn
TTITLE10=The Gallis Pole
TTITLE11=Julie Ann Johnson
EXTD=
EXTT0=
EXTT1=
EXTT2=
EXTT3=
EXTT4=
EXTT5=
EXTT6=
EXTT7=
EXTT8=
EXTT9=
EXTT10=
EXTT11=
PLAYORDER=
